:SAMPLES-PER-SECOND 30
:FULLY-SPECIFIED
:DEGREES
31
root  12.6205 40.0348 0.0998294 -115.296 -88.4507 111.086
RightUpLeg  4.32564 -8.52352 -6.03646
RightLeg  3.89878 8.68406 -0.576999
RightFoot  -4.13285 -0.160471 1.98175
RightToes  2.21189e-009 0 -3.6325e-017
Spine  4.88777 -0.233277 2.68694
Spine1  2.8348 0.654562 -3.75751
HEad  -7.84786 -7.49865 -3.39549
LeftShoulder1  0.222403 1.17559 -0.890267
LeftArm  -23.0817 -2.04851 -18.9804
LeftForeArm  -0.151045 2.81171 3.28229
LeftHand  -0.0572185 2.82766 1.89885
RightShoulder  0.149179 -1.53284 -1.57666
RightArm  -11.9092 1.72178 14.1195
RightForeArm  -4.39386 -2.43582 -3.53486
RightHand  -0.287377 6.29674 -3.18809
LeftUpLeg  3.96873 7.00705 3.82213
LeftLeg  1.70573 -3.33816 0.557589
LeftFoot  -1.26135 0.0994485 -1.08823
LeftToes  -3.01956e-010 3.07132e-011 1.04116e-011
32
root  12.6199 40.035 0.100435 -115.349 -88.4468 111.12
RightUpLeg  4.3577 -8.5126 -6.03621
RightLeg  3.87694 8.6678 -0.587964
RightFoot  -4.16728 -0.162293 2.01002
RightToes  2.21189e-009 0 -3.6325e-017
Spine  4.98314 -0.227808 2.61576
Spine1  2.77347 0.647073 -3.71491
HEad  -7.91719 -7.49154 -3.40001
LeftShoulder1  0.220183 1.18139 -0.793339
LeftArm  -23.1205 -1.98322 -19.0972
LeftForeArm  -0.122534 2.76094 3.30442
LeftHand  -0.0589092 2.99393 2.0223
RightShoulder  0.149172 -1.51859 -1.60897
RightArm  -11.8506 1.65349 14.1181
RightForeArm  -4.54118 -2.37997 -3.50554
RightHand  -0.295122 6.18001 -3.29472
LeftUpLeg  3.96837 7.01635 3.8228
LeftLeg  1.74791 -3.34675 0.560606
LeftFoot  -1.29518 0.100782 -1.1205
LeftToes  -3.01956e-010 3.07132e-011 1.04116e-011
33
root  12.6207 40.0352 0.101052 -114.692 -88.4607 110.484
RightUpLeg  4.32972 -8.49554 -6.0246
RightLeg  3.88767 8.65094 -0.604695
RightFoot  -4.17951 -0.16824 2.10229
RightToes  2.21189e-009 0 -3.6325e-017
Spine  4.87471 -0.237934 2.52506
Spine1  2.93814 0.605043 -3.54594
HEad  -8.08901 -7.42843 -3.37986
LeftShoulder1  0.216605 1.1778 -0.995839
LeftArm  -23.2277 -2.04627 -18.9805
LeftForeArm  -0.080668 2.8245 3.37492
LeftHand  -0.0588291 2.98627 1.95631
RightShoulder  0.149167 -1.45113 -1.76848
RightArm  -11.7869 1.59867 14.2019
RightForeArm  -4.5971 -2.35164 -3.47667
RightHand  -0.299458 5.89749 -3.37532
LeftUpLeg  3.94417 7.00795 3.82679
LeftLeg  1.73687 -3.35623 0.555662
LeftFoot  -1.32967 0.106872 -1.22709
LeftToes  -3.01956e-010 3.07132e-011 1.04116e-011
34
root  12.6158 40.0354 0.101634 -114.797 -88.4896 110.594
RightUpLeg  4.35473 -8.48732 -5.99654
RightLeg  3.83612 8.63218 -0.59835
RightFoot  -4.13367 -0.166993 2.08295
RightToes  2.21189e-009 0 -3.6325e-017
Spine  4.93279 -0.264939 2.50272
Spine1  2.8483 0.567002 -3.52033
HEad  -8.05143 -7.41155 -3.45177
LeftShoulder1  0.20973 1.24714 -0.956855
LeftArm  -23.1566 -1.98299 -19.0084
LeftForeArm  -0.0446738 2.80955 3.34211
LeftHand  -0.0541672 2.76784 1.81439
RightShoulder  0.149119 -1.45202 -1.74425
RightArm  -11.8101 1.68977 14.1875
RightForeArm  -4.53051 -2.39093 -3.48528
RightHand  -0.301401 5.8583 -3.28249
LeftUpLeg  3.94386 7.0343 3.86424
LeftLeg  1.75321 -3.4261 0.54685
LeftFoot  -1.29458 0.0976442 -1.0959
LeftToes  -3.01956e-010 3.07132e-011 1.04116e-011
35
root  12.6119 40.0356 0.102067 -115.538 -88.4787 111.344
RightUpLeg  4.35391 -8.48608 -5.99677
RightLeg  3.83062 8.63342 -0.604098
RightFoot  -4.12826 -0.166879 2.08118
RightToes  2.21189e-009 0 -3.6325e-017
Spine  4.95265 -0.24714 2.42762
Spine1  2.81106 0.561757 -3.41271
HEad  -8.05838 -7.4656 -3.58883
LeftShoulder1  0.207565 1.27305 -0.939032
LeftArm  -23.2177 -1.92607 -19.0831
LeftForeArm  0.508366 2.82922 3.40809
LeftHand  -0.0453958 2.40334 1.28606
RightShoulder  0.149068 -1.42941 -1.80679
RightArm  -11.7745 1.64165 14.196
RightForeArm  -4.62825 -2.39712 -3.47336
RightHand  -0.297615 5.75516 -3.32358
LeftUpLeg  3.96947 7.02567 3.85315
LeftLeg  1.70923 -3.3409 0.557824
LeftFoot  -1.29727 0.0987368 -1.12539
LeftToes  -3.01956e-010 3.07132e-011 1.04116e-011
